<?xml version="1.0" encoding="UTF-8"?>
<svg version="1.1" xmlns="http://www.w3.org/2000/svg" width="2360" height="1640">
<path d="M0 0 C1.00529251 -0.00860046 2.01058502 -0.01720093 3.04634094 -0.02606201 C4.71465469 -0.03245193 4.71465469 -0.03245193 6.41667175 -0.03897095 C8.16289574 -0.05123718 8.16289574 -0.05123718 9.94439697 -0.06375122 C13.81559368 -0.08866326 17.68678282 -0.10528322 21.55802917 -0.11953735 C23.53502587 -0.12752287 23.53502587 -0.12752287 25.5519619 -0.13566971 C31.08931572 -0.15730433 36.62666659 -0.17604147 42.16405201 -0.1872921 C50.10620884 -0.2035332 58.04787652 -0.23670721 65.98984891 -0.29369295 C71.57035262 -0.33237207 77.1507254 -0.35192238 82.73135966 -0.35721266 C86.06620326 -0.36086938 89.40040517 -0.37541016 92.73513222 -0.4053154 C96.45618375 -0.43678312 100.17599195 -0.43703065 103.8971405 -0.42959595 C105.00327698 -0.44600128 106.10941345 -0.46240662 107.24906921 -0.47930908 C114.63431288 -0.41870845 114.63431288 -0.41870845 118.03968811 2.30207825 C122.63504972 12.29601921 118.38610046 26.35117429 116.39396667 36.7515564 C116.08645569 38.40093581 115.77977501 40.05047022 115.47387695 41.70014954 C114.83539509 45.12795045 114.18821843 48.55395356 113.53434753 51.97885132 C112.69838031 56.36048677 111.88287721 60.74563878 111.07351208 65.13225651 C110.44524767 68.52660024 109.80723975 71.91905486 109.16617775 75.31100273 C108.86160181 76.92796164 108.55981651 78.54544889 108.26093102 80.16346931 C107.8426084 82.41885074 107.41143319 84.6714019 106.97673035 86.92367554 C106.61366035 88.84223106 106.61366035 88.84223106 106.24325562 90.79954529 C105.36688086 94.09418983 104.33890698 96.39971514 102.35099792 99.15390015 C99.68921572 100.48479125 97.66360396 100.26659008 94.68693542 100.2515564 C93.00470886 100.24672241 93.00470886 100.24672241 91.28849792 100.24179077 C90.11287292 100.23341187 88.93724792 100.22503296 87.72599792 100.21640015 C86.54263855 100.21188843 85.35927917 100.20737671 84.14006042 100.20272827 C81.21032286 100.19091481 78.2806852 100.17444272 75.35099792 100.15390015 C75.43220886 101.14390015 75.5134198 102.13390015 75.59709167 103.15390015 C76.19235101 113.6546469 76.19235101 113.6546469 73.79240417 117.9312439 C72.07239151 119.8450608 70.3603417 121.54950065 68.35099792 123.15390015 C68.86146667 124.24702515 69.37193542 125.34015015 69.89787292 126.46640015 C70.41439171 127.57376022 70.41439171 127.57376022 70.94134521 128.70349121 C71.71429029 130.33676599 72.50173143 131.96325908 73.30349731 133.58258057 C75.68265944 138.42070327 77.76317435 143.20250335 79.5065155 148.30673218 C83.59014299 159.72454035 83.59014299 159.72454035 92.20213318 167.68649292 C100.35066488 170.31127457 108.79518839 170.61945282 117.28849792 171.02890015 C119.84208447 171.22925773 122.39487016 171.44011273 124.94670105 171.66171265 C130.54184657 172.14307924 136.13400074 172.52247359 141.74246216 172.80914307 C145.70988344 173.33349723 148.50836358 174.31126581 151.35099792 177.15390015 C153.03619448 181.27326951 154.14567576 184.73902329 153.35099792 189.15390015 C148.91984425 196.00479645 141.96755078 201.3116597 135.93156433 206.7305603 C133.38848895 209.02066372 130.87053959 211.33797453 128.35099792 213.65390015 C125.23120334 216.51956577 122.10581806 219.37847445 118.96427917 222.2203064 C118.41191589 222.72175171 117.85955261 223.22319702 117.29045105 223.73983765 C116.22753859 224.70449769 115.16252 225.66684356 114.09513855 226.6265564 C111.34631848 229.08937557 111.34631848 229.08937557 109.35099792 232.15390015 C109.67280801 234.48636387 109.67280801 234.48636387 110.33903503 237.17929077 C110.57935959 238.2279834 110.81968414 239.27667603 111.06729126 240.35714722 C111.3349379 241.49663818 111.60258453 242.63612915 111.87834167 243.81015015 C112.42866514 246.21896017 112.97878888 248.62781583 113.5287323 251.03671265 C114.40511655 254.83805074 115.28492558 258.63854908 116.16911316 262.43807983 C117.0189983 266.10169954 117.85553756 269.76818276 118.69084167 273.43515015 C118.95646408 274.55844727 119.22208649 275.68174438 119.49575806 276.83908081 C122.50196605 290.09865088 122.50196605 290.09865088 121.35099792 296.15390015 C119.73015856 298.17389153 118.86748568 299.01675939 116.35392761 299.68417358 C107.97528835 299.96849272 101.76747977 296.35190494 94.60099792 292.40390015 C93.3246153 291.72225694 92.04717533 291.04259018 90.76872253 290.36483765 C84.72350263 287.14483538 78.73932653 283.82134818 72.77677917 280.45077515 C71.2825946 279.61304565 71.2825946 279.61304565 69.75822449 278.75839233 C67.90550695 277.71341639 66.06177849 276.65228728 64.22892761 275.57284546 C63.40424988 275.10459351 62.57957214 274.63634155 61.72990417 274.15390015 C61.02422302 273.74140015 60.31854187 273.32890015 59.59147644 272.90390015 C55.64258809 271.58201009 52.42153145 272.69796493 48.69230652 274.28622437 C47.80365906 274.75560425 46.9150116 275.22498413 45.99943542 275.70858765 C44.99291931 276.23621704 43.9864032 276.76384644 42.9493866 277.3074646 C41.88566833 277.87553833 40.82195007 278.44361206 39.72599792 279.02890015 C38.62167419 279.60664185 37.51735046 280.18438354 36.37956238 280.77963257 C31.08061952 283.56736548 25.83960332 286.4188933 20.68302917 289.4624939 C5.35138509 298.46382749 5.35138509 298.46382749 -3.43415833 297.83358765 C-6.0474418 297.03162764 -6.965383 296.29183853 -8.64900208 294.15390015 C-10.67510172 283.58108437 -7.01966471 271.33513111 -5.14900208 260.90390015 C-4.64492521 258.07179041 -4.14397646 255.23925939 -3.65107727 252.40518188 C-3.3462518 250.65427293 -3.03505699 248.90445595 -2.71626282 247.15603638 C-0.80017878 238.02788376 -0.80017878 238.02788376 -3.37385559 229.53671265 C-4.16719299 228.79163452 -4.9605304 228.0465564 -5.77790833 227.27890015 C-6.64867004 226.4384314 -7.51943176 225.59796265 -8.4165802 224.73202515 C-9.33890442 223.8812439 -10.26122864 223.03046265 -11.21150208 222.15390015 C-13.00668554 220.44789427 -14.7996907 218.73959302 -16.59040833 217.02890015 C-17.45698059 216.20744507 -18.32355286 215.38598999 -19.21638489 214.53964233 C-22.02072463 211.78934046 -24.59095519 208.90216778 -27.13606262 205.91366577 C-29.24054318 203.46585298 -31.48840842 201.18214463 -33.77400208 198.90390015 C-34.5809552 198.0943689 -35.38790833 197.28483765 -36.21931458 196.45077515 C-38.61796087 194.09080724 -38.61796087 194.09080724 -41.41853333 192.10702515 C-43.64900208 190.15390015 -43.64900208 190.15390015 -44.27790833 188.15390015 C-44.25599426 187.49390015 -44.2340802 186.83390015 -44.21150208 186.15390015 C-44.21279114 185.49390015 -44.2140802 184.83390015 -44.21540833 184.15390015 C-43.39813242 181.26807074 -41.92054958 180.08412137 -39.64900208 178.15390015 C-37.05114746 177.26200867 -37.05114746 177.26200867 -34.07356262 176.7059021 C-32.95527573 176.48920364 -31.83698883 176.27250519 -30.68481445 176.04924011 C-29.48061356 175.83241074 -28.27641266 175.61558136 -27.03572083 175.3921814 C-25.79280777 175.15605637 -24.54989471 174.91993134 -23.26931763 174.676651 C-19.96787147 174.05260023 -16.66446747 173.4423158 -13.35932922 172.83834839 C-10.01414327 172.22325083 -6.67264688 171.58874544 -3.3306427 170.95663452 C1.57386502 170.03409111 6.47904193 169.11570403 11.38737488 168.2137146 C12.95446198 167.91899261 12.95446198 167.91899261 14.5532074 167.61831665 C16.88024789 167.23204184 19.10612814 167.03476235 21.45475769 166.89828491 C24.59559325 166.42357507 24.59559325 166.42357507 26.25968933 163.46102905 C26.73583679 162.27944214 27.21198425 161.09785522 27.70256042 159.88046265 C27.96934601 159.24208466 28.23613159 158.60370667 28.51100159 157.94598389 C29.35935147 155.90006971 30.16811251 153.84108317 30.97599792 151.77890015 C31.52546629 150.43017561 32.07752674 149.082504 32.63224792 147.7359314 C33.71005809 145.11427643 34.77506056 142.48795336 35.83244324 139.85800171 C37.84861094 134.88582048 40.07577941 130.01221346 42.35099792 125.15390015 C41.60849792 124.61765015 40.86599792 124.08140015 40.10099792 123.52890015 C35.88073208 119.8841251 33.53121522 116.93805141 32.96037292 111.28671265 C32.98657886 109.95020993 33.03372716 108.61396603 33.10099792 107.27890015 C33.1190448 106.59054077 33.13709167 105.9021814 33.15568542 105.19296265 C33.20236044 103.51266205 33.27408853 101.83308852 33.35099792 100.15390015 C31.39198339 100.26772668 29.43376412 100.39531139 27.47599792 100.52890015 C25.84017761 100.63331421 25.84017761 100.63331421 24.17131042 100.73983765 C21.22053318 100.88643506 21.22053318 100.88643506 19.35099792 103.15390015 C16.66260408 103.42381921 14.05957856 103.24127372 11.35099792 103.15390015 C8.35738657 98.33551634 6.65938471 94.33726665 5.51994324 88.7124939 C5.37305557 88.00404831 5.22616791 87.29560272 5.0748291 86.56568909 C4.59696726 84.24329217 4.13736788 81.91774093 3.67912292 79.59140015 C3.34920708 77.95568526 3.01860816 76.32010801 2.68736267 74.68466187 C1.99683513 71.26014575 1.31552602 67.83395533 0.64054871 64.40634155 C-0.21750617 60.05354179 -1.09956278 55.70602838 -1.98897934 51.35954285 C-2.67717756 47.98114531 -3.35151045 44.60008675 -4.02202606 41.21813965 C-4.34139001 39.61640521 -4.66502235 38.01551475 -4.99332428 36.41558838 C-10.26043422 10.63435014 -10.26043422 10.63435014 -5.64900208 1.15390015 C-4.02785867 -0.46724326 -2.241159 0.01421069 0 0 Z M7.35099792 14.15390015 C8.54724792 20.46515015 9.74349792 26.77640015 10.97599792 33.27890015 C11.33903015 35.19847534 11.70206238 37.11805054 12.07609558 39.09579468 C15.06156111 54.80558444 18.21436849 70.47075299 21.35099792 86.15390015 C44.12099792 86.15390015 66.89099792 86.15390015 90.35099792 86.15390015 C92.3429591 77.52206838 94.22153162 68.94788038 95.83146667 60.24765015 C96.04918228 59.07931641 96.26689789 57.91098267 96.49121094 56.70724487 C96.94552055 54.26395199 97.39836204 51.8203857 97.84977722 49.3765564 C98.54205994 45.63464685 99.24221033 41.89426318 99.9427948 38.15390015 C100.38532799 35.76857172 100.82740182 33.38315802 101.26896667 30.99765015 C101.4782933 29.8830542 101.68761993 28.76845825 101.90328979 27.62008667 C102.09381424 26.58130371 102.28433868 25.54252075 102.4806366 24.47225952 C102.64923691 23.56326904 102.81783722 22.65427856 102.99154663 21.71774292 C103.46669984 18.76012435 103.46669984 18.76012435 103.35099792 14.15390015 C89.82099792 14.15390015 76.29099792 14.15390015 62.35099792 14.15390015 C62.02099792 32.63390015 61.69099792 51.11390015 61.35099792 70.15390015 C58.30115797 71.67882012 55.70866103 71.38952563 52.35099792 71.15390015 C50.65536499 69.96937561 50.65536499 69.96937561 49.35099792 68.15390015 C48.95227051 65.74308777 48.95227051 65.74308777 48.91862488 62.85629272 C48.89883072 61.77539871 48.87903656 60.6945047 48.85864258 59.58085632 C48.85225266 58.4151561 48.84586273 57.24945587 48.83927917 56.0484314 C48.82132797 54.85408981 48.80337677 53.65974823 48.78488159 52.42921448 C48.7306276 48.60831246 48.69683364 44.78753644 48.66349792 40.96640015 C48.63033828 38.37849193 48.5958499 35.79060037 48.5599823 33.20272827 C48.47238716 26.85309922 48.41244417 20.504052 48.35099792 14.15390015 C34.82099792 14.15390015 21.29099792 14.15390015 7.35099792 14.15390015 Z M52.35099792 101.15390015 C50.20263828 103.4013322 50.20263828 103.4013322 48.35099792 106.15390015 C48.53909252 108.41103528 48.74645352 109.54935574 50.35099792 111.15390015 C54.36756935 111.38308256 54.36756935 111.38308256 58.35099792 111.15390015 C59.01099792 110.49390015 59.67099792 109.83390015 60.35099792 109.15390015 C60.35099792 107.83390015 60.35099792 106.51390015 60.35099792 105.15390015 C57.71099792 103.83390015 55.07099792 102.51390015 52.35099792 101.15390015 Z M55.35099792 135.15390015 C54.19864724 137.66044947 53.04712225 140.16737087 51.89689636 142.67489624 C50.9019293 144.84070177 49.9038433 147.005077 48.90275574 149.1680603 C46.46424151 154.45461615 44.07777479 159.74600069 41.86271667 165.13046265 C41.28735168 166.49993042 41.28735168 166.49993042 40.70036316 167.89706421 C39.98197998 169.61684451 39.28388946 171.34528079 38.60905457 173.08261108 C38.28155212 173.85637085 37.95404968 174.63013062 37.61662292 175.42733765 C37.34624207 176.10200073 37.07586121 176.77666382 36.79728699 177.47177124 C34.52728284 180.11193474 31.62798122 180.47249576 28.35099792 181.15390015 C27.54536407 181.32338165 26.73973022 181.49286316 25.90968323 181.66748047 C23.07262451 182.24135696 20.23080201 182.78300545 17.38615417 183.31796265 C16.3528447 183.51489716 15.31953522 183.71183167 14.25491333 183.91473389 C10.97500439 184.5391283 7.69427361 185.15907777 4.41349792 185.77890015 C2.1810202 186.20308549 -0.05140231 186.62756153 -2.2837677 187.05233765 C-7.73821111 188.0895581 -13.19333498 189.1231366 -18.64900208 190.15390015 C-16.85368099 194.0333973 -14.54833153 196.42351309 -11.46150208 199.40390015 C-8.2136458 202.57591869 -5.03157621 205.75699488 -2.08650208 209.21640015 C2.82358298 214.958703 8.04589355 220.95049723 14.35099792 225.15390015 C16.07415773 236.22140082 13.19324937 248.12582139 11.35099792 259.02890015 C11.06091826 260.79566052 10.77184908 262.56258712 10.48381042 264.3296814 C9.78448013 268.60642208 9.07161 272.88069611 8.35099792 277.15390015 C12.23211337 275.94474553 15.71036515 274.56178393 19.25724792 272.5796814 C20.15926941 272.07984741 21.06129089 271.58001343 21.99064636 271.06503296 C22.93456238 270.53748413 23.87847839 270.0099353 24.85099792 269.46640015 C26.8242835 268.38314249 28.7982417 267.30110917 30.77287292 266.2203064 C33.37937276 264.7900709 35.98476354 263.35876351 38.57951355 261.90731812 C40.41016585 260.8865167 42.25241825 259.89174156 44.10099792 258.90390015 C45.08584167 258.3624939 46.07068542 257.82108765 47.08537292 257.26327515 C54.71851389 254.67019855 60.06677392 255.70705985 67.28459167 259.22421265 C69.80615165 260.54003388 72.29778524 261.90581906 74.78849792 263.27890015 C76.0459539 263.95265898 77.30441423 264.62454684 78.56388855 265.29452515 C83.28068784 267.81385505 87.96810349 270.38414297 92.64054871 272.98495483 C93.62909851 273.53312866 94.61764832 274.08130249 95.63615417 274.64608765 C96.93565002 275.37481079 96.93565002 275.37481079 98.26139832 276.11825562 C100.260968 277.30192358 100.260968 277.30192358 102.35099792 277.15390015 C101.92619057 271.27402691 100.85832588 265.66643227 99.50334167 259.93515015 C99.32687103 259.18797729 99.15040039 258.44080444 98.96858215 257.67098999 C98.22483959 254.54278321 97.47396013 251.41639968 96.71403503 248.29208374 C92.28370144 230.0033925 92.28370144 230.0033925 93.35099792 224.15390015 C95.43281706 221.17847882 97.94986344 218.97290523 100.72599792 216.65390015 C101.46044128 216.00517944 102.19488464 215.35645874 102.95158386 214.68807983 C104.41185044 213.40127211 105.88108177 212.12455462 107.35978699 210.85897827 C109.81734411 208.75456692 112.20991324 206.58331504 114.60099792 204.40390015 C115.35638855 203.72972046 116.11177917 203.05554077 116.89006042 202.3609314 C121.75006994 198.00235143 126.54496604 193.57181605 131.35099792 189.15390015 C128.99546292 186.79836514 128.20410862 186.80358451 124.9806366 186.43954468 C124.07597153 186.33248199 123.17130646 186.22541931 122.23922729 186.1151123 C121.25904129 186.00674042 120.27885529 185.89836853 119.26896667 185.78671265 C117.2018566 185.53845381 115.13480094 185.28974163 113.0677948 185.0406189 C109.8030948 184.65711424 106.53796028 184.27883931 103.27165222 183.90927124 C100.12301635 183.54960408 96.97737271 183.16942444 93.83146667 182.78671265 C92.85735336 182.68238922 91.88324005 182.5780658 90.87960815 182.47058105 C85.50735432 181.80432795 82.38023448 181.03582913 78.35099792 177.15390015 C77.69099792 177.15390015 77.03099792 177.15390015 76.35099792 177.15390015 C76.10623718 176.33840698 75.86147644 175.52291382 75.60929871 174.68270874 C74.11814949 170.50089446 72.22271153 166.64804623 70.21818542 162.69296265 C69.82148651 161.90239471 69.4247876 161.11182678 69.0160675 160.29730225 C67.75647581 157.78925416 66.49133029 155.28405609 65.22599792 152.77890015 C64.36755591 151.07205448 63.50947905 149.36502511 62.65177917 147.6578064 C60.55573958 143.48769935 58.45471675 139.32013812 56.35099792 135.15390015 C56.02099792 135.15390015 55.69099792 135.15390015 55.35099792 135.15390015 Z " fill="#F2F2F2" transform="translate(882.6490020751953,660.8460998535156)"/>
<path d="M0 0 C3.46402638 5.58689211 5.66338048 11.21794096 7.75 17.4375 C8.06582031 18.35982422 8.38164063 19.28214844 8.70703125 20.23242188 C9.47775058 22.48619205 10.24188813 24.74196445 11 27 C12.3929126 26.97643433 12.3929126 26.97643433 13.81396484 26.95239258 C17.25428829 26.90131147 20.69420976 26.86367393 24.13476562 26.83520508 C25.62473909 26.820104 27.11466801 26.79962142 28.60449219 26.77368164 C30.7442523 26.73735416 32.88342566 26.72028779 35.0234375 26.70703125 C36.31169434 26.6913208 37.59995117 26.67561035 38.92724609 26.65942383 C40.44825928 26.82800903 40.44825928 26.82800903 42 27 C44.09524109 30.14286163 44.6178329 32.16712246 44.51708984 35.93164062 C43.49836585 40.00653659 40.10146626 41.93701535 36.8125 44.25 C36.13896484 44.75273438 35.46542969 45.25546875 34.77148438 45.7734375 C33.45952847 46.75132463 32.13956763 47.71858313 30.81103516 48.67382812 C29.21017877 49.8460918 27.66800016 51.09758241 26.13671875 52.359375 C24 54 24 54 22 54 C22.95340607 57.56383727 23.91359076 61.12581415 24.875 64.6875 C25.14441406 65.69490234 25.41382813 66.70230469 25.69140625 67.74023438 C25.95566406 68.71669922 26.21992187 69.69316406 26.4921875 70.69921875 C26.73308105 71.59471436 26.97397461 72.49020996 27.22216797 73.4128418 C27.96177058 76.03346485 27.96177058 76.03346485 29.08251953 78.59692383 C30.31036087 81.81290102 30.19667666 84.59093792 30 88 C29 89 29 89 25.5390625 89.421875 C19.8393506 89.34564167 15.94983066 86.37250346 11.375 83.25 C10.55515625 82.71117187 9.7353125 82.17234375 8.890625 81.6171875 C6.58171622 80.09523798 4.28932074 78.55119959 2 77 C0.80543548 76.20200418 -0.38976223 75.40495433 -1.5859375 74.609375 C-2.38257813 74.07828125 -3.17921875 73.5471875 -4 73 C-4.86882813 73.60328125 -5.73765625 74.2065625 -6.6328125 74.828125 C-7.79685533 75.63544503 -8.96091894 76.44273509 -10.125 77.25 C-10.69476562 77.64574219 -11.26453125 78.04148437 -11.8515625 78.44921875 C-14.66085898 80.39657199 -17.47818555 82.31263827 -20.33984375 84.18359375 C-22.9848094 85.7967899 -22.9848094 85.7967899 -24.4375 87.8125 C-26 89 -26 89 -29.5625 88.875 C-33 88 -33 88 -35 85 C-34.7109375 82.2421875 -34.7109375 82.2421875 -34 79 C-33.78601563 77.88882813 -33.57203125 76.77765625 -33.3515625 75.6328125 C-31.15332294 65.01980643 -31.15332294 65.01980643 -29.25 60.375 C-27.81163825 56.58035704 -27.81163825 56.58035704 -29 53 C-30.82428362 51.56812026 -30.82428362 51.56812026 -33.1484375 50.4921875 C-33.98890625 50.06292969 -34.829375 49.63367188 -35.6953125 49.19140625 C-36.57960938 48.75699219 -37.46390625 48.32257812 -38.375 47.875 C-40.11256318 46.99855269 -41.84956597 46.12099328 -43.5859375 45.2421875 C-44.74681885 44.66766846 -44.74681885 44.66766846 -45.93115234 44.08154297 C-50.82574314 41.52277058 -50.82574314 41.52277058 -52 38 C-52.17812624 35.3071504 -52.08727698 32.70558632 -52 30 C-50.0769111 28.0769111 -46.52929515 28.74678162 -43.90234375 28.68359375 C-43.19348526 28.66281265 -42.48462677 28.64203156 -41.75428772 28.62062073 C-39.48212695 28.55505402 -37.20984736 28.4962077 -34.9375 28.4375 C-33.40037817 28.39432151 -31.8632685 28.35070745 -30.32617188 28.30664062 C-26.5509041 28.19936551 -22.7755164 28.09811863 -19 28 C-18.6146106 26.88757935 -18.6146106 26.88757935 -18.22143555 25.75268555 C-17.05237788 22.39444044 -15.87011525 19.04099348 -14.6875 15.6875 C-14.28337891 14.52025391 -13.87925781 13.35300781 -13.46289062 12.15039062 C-12.86831055 10.47299805 -12.86831055 10.47299805 -12.26171875 8.76171875 C-11.90037842 7.73006592 -11.53903809 6.69841309 -11.16674805 5.63549805 C-8.59113327 -0.1824056 -6.20934152 -0.35147216 0 0 Z M-4 23 C-4.38091797 23.87011719 -4.38091797 23.87011719 -4.76953125 24.7578125 C-5.11371094 25.53898438 -5.45789063 26.32015625 -5.8125 27.125 C-6.31716797 28.27355469 -6.31716797 28.27355469 -6.83203125 29.4453125 C-8.15092826 32.33012402 -9.58143545 35.16287091 -11 38 C-16.94 38.33 -22.88 38.66 -29 39 C-27.515 39.99 -27.515 39.99 -26 41 C-23.67455567 42.83216826 -21.36516481 44.68320073 -19.05859375 46.5390625 C-17.1488828 48.19291567 -17.1488828 48.19291567 -15 48 C-15.31201674 50.04174058 -15.62463569 52.08338913 -15.9375 54.125 C-16.11152344 55.26195312 -16.28554688 56.39890625 -16.46484375 57.5703125 C-16.95589266 60.71732669 -17.47018719 63.85930783 -18 67 C-16.72791378 66.37755401 -15.45738118 65.75193233 -14.1875 65.125 C-13.47980469 64.77695312 -12.77210938 64.42890625 -12.04296875 64.0703125 C-9.78753582 62.9343514 -9.78753582 62.9343514 -7 61 C-2.02811687 60.14767718 1.8525488 62.51488754 6 65 C7.68083079 66.31543279 9.3524116 67.64316249 11 69 C11.66 69 12.32 69 13 69 C12.79503906 68.20335937 12.59007812 67.40671875 12.37890625 66.5859375 C12.10949219 65.52632812 11.84007812 64.46671875 11.5625 63.375 C11.29566406 62.33085938 11.02882813 61.28671875 10.75390625 60.2109375 C9.30030211 54.01993958 9.30030211 54.01993958 9 51 C11.21061791 47.68407314 12.61196969 46.98862648 16 45 C18.72342596 43.07490669 21.4315769 41.12866828 24 39 C24 38.67 24 38.34 24 38 C17.07 37.67 10.14 37.34 3 37 C-1.5 28 -1.5 28 -3 23 C-3.33 23 -3.66 23 -4 23 Z " fill="#F2F2F2" transform="translate(941,830)"/>
<path d="M0 0 C6.625 -0.25 6.625 -0.25 10 2 C9 3 9 3 7.15234375 3.09765625 C5.1015625 3.06510417 3.05078125 3.03255208 1 3 C0.67 2.01 0.34 1.02 0 0 Z " fill="#FFFFFF" transform="translate(893,761)"/>
</svg>
